<svg xmlns="http://www.w3.org/2000/svg" width="50" height="39" viewBox="0 0 50 39"><g transform="translate(-391 -906)"><g transform="translate(391.977 918.348)"><path d="M10,182.795H53.314v6.066H10Z" transform="translate(-10 -182.795)" fill="#c73536"/></g><g transform="translate(391 906)"><path d="M45.931,56.489H8.8a4.078,4.078,0,0,0-4.069,4.077v.667H4.069A4.078,4.078,0,0,0,0,65.311v26.1a4.078,4.078,0,0,0,4.069,4.077H41.2a4.078,4.078,0,0,0,4.069-4.077v-.667h.664A4.078,4.078,0,0,0,50,86.667v-26.1a4.078,4.078,0,0,0-4.069-4.077ZM43.314,91.412A2.122,2.122,0,0,1,41.2,93.534H4.069a2.122,2.122,0,0,1-2.116-2.123v-26.1a2.122,2.122,0,0,1,2.116-2.123H41.2a2.122,2.122,0,0,1,2.116,2.123Zm4.733-4.745a2.122,2.122,0,0,1-2.116,2.123h-.664V65.311A4.078,4.078,0,0,0,41.2,61.234H6.686v-.667A2.122,2.122,0,0,1,8.8,58.444H45.931a2.122,2.122,0,0,1,2.116,2.123Z" transform="translate(0 -56.489)" fill="#363435"/><path d="M66.835,298.444H56.9a.977.977,0,0,0-.977.977v7.494a.977.977,0,0,0,.977.977h9.932a.977.977,0,0,0,.977-.977v-7.494A.977.977,0,0,0,66.835,298.444Zm-.977,7.494H57.879V300.4h7.979Z" transform="translate(-50.464 -274.789)" fill="#363435"/><path d="M308.678,294.769a5.083,5.083,0,1,0,5.079,5.083A5.086,5.086,0,0,0,308.678,294.769Zm0,8.212a3.13,3.13,0,1,1,3.126-3.13A3.131,3.131,0,0,1,308.678,302.981Z" transform="translate(-273.951 -271.466)" fill="#363435"/></g></g></svg>